<svg xmlns="http://www.w3.org/2000/svg" width="41" height="43" fill="none" viewBox="0 0 41 43"><path fill="#8c0914" fill-rule="evenodd" d="M20.413.008c1.178.046 1.83.155 2.713.465.635.232 1.612.558 2.17.728.79.248 1.27.295 2.247.233.682-.047 1.41-.124 2.015-.28l-.387.342c-.217.186-.775.511-1.24.728-.744.341-.992.388-1.938.295-.604-.047-1.844-.124-2.79-.186-.945-.047-2.092-.016-2.557.062-.465.093-1.21.31-1.628.511-.434.202-1.085.682-1.472 1.07-.682.697-.713.713-1.938.806-.96.093-1.488.232-2.325.65-.635.31-1.24.745-1.488 1.04-.217.294-.558.805-.76 1.146-.263.465-.387.961-.449 1.938-.093 1.255-.155 1.426-1.178 3.41-.589 1.147-1.116 2.154-1.147 2.247s.186-.03.496-.279c.31-.232.62-.418.682-.418.078 0 .078.325.016.728-.047.419-.233.977-.667 1.767l.698.636c.542.496.775.62 1.085.542.217-.046.837-.294 1.395-.558a18 18 0 0 0 1.937-1.054c.62-.403 1.023-.79 1.194-1.178.155-.31.279-.744.279-.96 0-.218-.047-.497-.124-.636-.062-.14-.295-.357-.543-.465-.232-.124-.635-.186-1.426-.047l.465-.387c.248-.217.775-.465 1.163-.543.387-.077.744-.124.806-.077.077.03.45-.016.852-.093.465-.093.915-.326 1.163-.59.232-.232.62-.867.883-1.425.248-.558.496-1.256.558-1.55s.031-.822-.062-1.163c-.077-.34-.387-.837-.666-1.116a9 9 0 0 0-.822-.728c-.279-.202-.248-.217.341-.078.372.078.884.248 1.132.372s.728.496 1.038.822c.326.31.775.976 1.008 1.472.248.48.511 1.287.604 1.767.093.496.124 1.24.062 1.674-.062.419-.248 1.085-.434 1.457-.186.388-.65.961-1.038 1.302-.388.326-.9.884-1.132 1.24-.232.357-.496.9-.589 1.194s-.217 1.348-.294 2.325c-.109 1.58-.186 1.906-.667 2.867-.403.79-.868 1.395-1.72 2.201-.884.853-1.52 1.302-2.542 1.783-.744.356-1.767.775-2.279.93-.511.155-.868.217-.775.155.093-.078.574-.45 1.085-.837.512-.388 1.225-1.023 1.581-1.426.372-.388.806-1.008.977-1.38.17-.356.31-.806.31-1.007 0-.186-.186-.558-.434-.822-.357-.418-.558-.511-1.41-.589-.884-.077-1.04-.155-1.504-.682-.295-.31-.574-.76-.62-1.007-.047-.264-.233-.48-.496-.605-.233-.093-.667-.403-.961-.666a5.6 5.6 0 0 0-1.008-.744c-.263-.124-.65-.388-.899-.558-.232-.186-.418-.372-.418-.45 0-.062.263-.434.589-.852.31-.403 1.038-1.628 1.596-2.744.93-1.813 1.039-2.139 1.132-3.255.077-.837.232-1.488.496-2.015.217-.434.589-1.038.852-1.364.248-.31.558-.899.698-1.317.14-.403.418-1.023.62-1.395.201-.357.744-.93 1.178-1.287.45-.356 1.302-.868 1.906-1.147.605-.294 1.566-.635 2.17-.76.713-.154 1.612-.216 2.635-.185m3.364 3.208c.837-.015 2.061.093 2.712.233.698.14 1.83.542 2.682.945 1.255.605 1.658.9 2.79 2.046.728.744 1.55 1.72 1.813 2.186.28.465.698 1.302.915 1.86.232.558.511 1.503.635 2.092.17.775.202 1.597.14 2.868-.047.976-.202 2.2-.341 2.712-.14.512-.434 1.349-.667 1.86-.232.512-.65 1.287-.945 1.705-.295.434-.961 1.194-1.473 1.705-.511.512-1.457 1.256-2.092 1.659-.636.403-1.86 1.007-2.713 1.348-.852.341-3.58 1.395-6.045 2.34-2.464.962-4.541 1.783-4.619 1.83-.062.061-.279.588-.48 1.193-.202.605-.868 2.589-1.473 4.418q-1.1 3.332-1.1 4.076c0 .403.077.883.17 1.085.093.186.326.496.837 1.054H5.068l.62-.419c.341-.232.76-.604.93-.806.17-.217.465-.681.667-1.023.201-.356.806-2.03 1.364-3.735.542-1.705.96-3.131.914-3.178-.046-.046-.511.124-1.038.372-.543.233-1.814.868-2.821 1.395-1.271.651-2.124 1.21-2.744 1.799-.511.48-1.038 1.178-1.24 1.627-.248.542-.356 1.085-.356 1.782a9.2 9.2 0 0 0 .201 2.093l-.465-.543c-.248-.294-.604-.93-.775-1.395C.093 39.813 0 39.192 0 38.387c0-.791.108-1.442.325-2.016.171-.464.59-1.27.915-1.782.325-.511 1.007-1.349 1.519-1.86a13 13 0 0 1 1.844-1.565 17 17 0 0 1 1.705-1.039c.419-.217 3.038-1.302 5.813-2.402a717 717 0 0 1 6.51-2.589c.806-.325 2.728-1.054 4.262-1.643 1.535-.589 3.131-1.255 3.565-1.488.419-.217 1.333-.76 2.015-1.209s1.597-1.193 2.03-1.643c.435-.465.962-1.147 1.194-1.534.217-.388.558-1.116.729-1.628.217-.62.356-1.488.418-2.557.062-1.302.031-1.83-.201-2.635-.155-.558-.59-1.488-.992-2.093-.403-.589-1.132-1.457-1.643-1.922-.496-.45-1.395-1.054-2-1.348a12 12 0 0 0-2.247-.775c-.713-.14-1.736-.217-4.108-.14l1.395.217c.76.109 1.953.388 2.635.605.682.201 1.72.666 2.31 1.023.573.34 1.41 1.023 1.86 1.488.434.465.976 1.24 1.209 1.705.232.465.496 1.348.589 1.937.124.775.14 1.395.015 2.17-.077.59-.232 1.256-.31 1.473-.124.31-.155.201-.155-.62a10 10 0 0 0-.325-2.093c-.155-.589-.543-1.426-.837-1.86-.295-.418-.822-.976-1.163-1.24-.356-.263-.682-.434-.728-.387-.047.046.511 1.906 2.573 8.215l-.295.434c-.17.232-.635.744-1.054 1.147-.403.387-1.302 1.07-3.224 2.294l-2.325-6.96c-1.813-5.44-2.433-7.099-2.805-7.564-.264-.325-.822-.775-1.24-1.007-.419-.233-1.116-.48-2.34-.682l.48-.28c.263-.17.868-.433 1.333-.588a14 14 0 0 1 1.937-.512 18 18 0 0 1 2.589-.217m-8.696 6.2c.047-.015.047.078 0 .186-.046.109-.263.45-.48.76-.31.45-.59.62-1.395.883-.558.17-1.178.496-1.395.713s-.434.388-.512.388c-.062 0 .062-.465.636-2.093l1.534-.418c.837-.217 1.566-.419 1.612-.419m21.824 4.79c.078.124.31.79.512 1.472.279.992.356 1.628.356 3.178 0 1.58-.062 2.139-.34 3.022a12 12 0 0 1-.93 2.077c-.326.543-1.024 1.426-2.527 2.96l2.108 6.402c1.162 3.503 2.216 6.603 2.34 6.851.14.248.434.697.651.992.217.279.682.682 1.643 1.255h-4.805c-4.092 0-4.758-.03-4.495-.201.17-.124.434-.465.574-.775.155-.325.279-.868.279-1.24 0-.418-.682-2.697-1.938-6.463-1.07-3.193-1.937-5.813-1.937-5.813-.016 0 .527-.325 1.193-.713.667-.387 1.767-1.162 2.434-1.705.682-.542 1.596-1.441 2.061-2 .45-.557 1.147-1.642 1.55-2.402.496-.976.806-1.829 1.008-2.867.232-1.116.279-1.814.217-2.868-.062-.868-.031-1.302.046-1.162" clip-rule="evenodd"/></svg>