<svg width="41" height="43" viewBox="0 0 41 43" fill="none" xmlns="http://www.w3.org/2000/svg">
<path fill-rule="evenodd" clip-rule="evenodd" d="M20.4134 0.00774994C21.5913 0.0542496 22.2423 0.162749 23.1258 0.472747C23.7613 0.705245 24.7378 1.03074 25.2958 1.20124C26.0863 1.44924 26.5668 1.49574 27.5433 1.43374C28.2253 1.38724 28.9538 1.30974 29.5583 1.15474L29.1708 1.49574C28.9538 1.68174 28.3958 2.00724 27.9308 2.22423C27.1868 2.56523 26.9388 2.61173 25.9933 2.51873C25.3888 2.47223 24.1488 2.39473 23.2033 2.33273C22.2578 2.28623 21.1108 2.31723 20.6459 2.39473C20.1809 2.48773 19.4369 2.70473 19.0184 2.90623C18.5844 3.10773 17.9334 3.58822 17.5459 3.97572C16.8639 4.67322 16.8329 4.68872 15.6084 4.78172C14.6474 4.87471 14.1204 5.01421 13.2834 5.43271C12.6479 5.74271 12.0434 6.17671 11.7954 6.4712C11.5784 6.7657 11.2374 7.2772 11.0359 7.6182C10.7724 8.08319 10.6484 8.57919 10.5864 9.55568C10.4934 10.8112 10.4314 10.9817 9.40843 12.9657C8.81944 14.1126 8.29244 15.1201 8.26144 15.2131C8.23044 15.3061 8.44744 15.1821 8.75744 14.9341C9.06743 14.7016 9.37743 14.5156 9.43943 14.5156C9.51693 14.5156 9.51693 14.8411 9.45493 15.2441C9.40843 15.6626 9.22243 16.2206 8.78844 17.0111L9.48593 17.6466C10.0284 18.1426 10.2609 18.2666 10.5709 18.1891C10.7879 18.1426 11.4079 17.8946 11.9659 17.6311C12.5239 17.3831 13.3919 16.9026 13.9034 16.5771C14.5234 16.1741 14.9264 15.7866 15.0969 15.3991C15.2519 15.0891 15.3759 14.6551 15.3759 14.4381C15.3759 14.2211 15.3294 13.9422 15.2519 13.8027C15.1899 13.6632 14.9574 13.4462 14.7094 13.3377C14.4769 13.2137 14.0739 13.1517 13.2834 13.2912L13.7484 12.9037C13.9964 12.6867 14.5234 12.4387 14.9109 12.3612C15.2984 12.2837 15.6549 12.2372 15.7169 12.2837C15.7944 12.3147 16.1664 12.2682 16.5694 12.1907C17.0344 12.0977 17.4839 11.8652 17.7319 11.6017C17.9644 11.3692 18.3519 10.7337 18.6154 10.1757C18.8634 9.61768 19.1114 8.92019 19.1734 8.62569C19.2354 8.33119 19.2044 7.80419 19.1114 7.4632C19.0339 7.1222 18.7239 6.6262 18.4449 6.3472C18.1659 6.06821 17.7939 5.74271 17.6234 5.61871C17.3444 5.41721 17.3754 5.40171 17.9644 5.54121C18.3364 5.61871 18.8479 5.78921 19.0959 5.91321C19.3439 6.03721 19.8244 6.4092 20.1344 6.7347C20.4599 7.0447 20.9093 7.71119 21.1418 8.20719C21.3898 8.68769 21.6533 9.49368 21.7463 9.97418C21.8393 10.4702 21.8703 11.2142 21.8083 11.6482C21.7463 12.0667 21.5603 12.7332 21.3743 13.1052C21.1883 13.4927 20.7234 14.0661 20.3359 14.4071C19.9484 14.7326 19.4369 15.2906 19.2044 15.6471C18.9719 16.0036 18.7084 16.5461 18.6154 16.8406C18.5224 17.1351 18.3984 18.1891 18.3209 19.1656C18.2124 20.7466 18.1349 21.0721 17.6544 22.0331C17.2514 22.8236 16.7864 23.4281 15.9339 24.2341C15.0504 25.0866 14.4149 25.5361 13.3919 26.0166C12.6479 26.3731 11.6249 26.7916 11.1134 26.9466C10.6019 27.1016 10.2454 27.1636 10.3384 27.1016C10.4314 27.0241 10.9119 26.6521 11.4234 26.2646C11.9349 25.8771 12.6479 25.2416 13.0044 24.8386C13.3764 24.4511 13.8104 23.8311 13.9809 23.4591C14.1514 23.1026 14.2909 22.6531 14.2909 22.4516C14.2909 22.2656 14.1049 21.8936 13.8569 21.6301C13.5004 21.2116 13.2989 21.1186 12.4464 21.0411C11.5629 20.9636 11.4079 20.8861 10.9429 20.3591C10.6484 20.0491 10.3694 19.5996 10.3229 19.3516C10.2764 19.0881 10.0904 18.8711 9.82693 18.7471C9.59443 18.6541 9.16043 18.3441 8.86594 18.0806C8.57144 17.8016 8.12194 17.4761 7.85844 17.3366C7.59495 17.2126 7.20745 16.9491 6.95945 16.7786C6.72695 16.5926 6.54095 16.4066 6.54095 16.3291C6.54095 16.2671 6.80445 15.8951 7.12995 15.4766C7.43995 15.0736 8.16844 13.8492 8.72644 12.7332C9.65643 10.9197 9.76493 10.5942 9.85793 9.47818C9.93543 8.64119 10.0904 7.99019 10.3539 7.4632C10.5709 7.0292 10.9429 6.4247 11.2064 6.09921C11.4544 5.78921 11.7644 5.20021 11.9039 4.78172C12.0434 4.37872 12.3224 3.75872 12.5239 3.38673C12.7254 3.03023 13.2679 2.45673 13.7019 2.10023C14.1514 1.74374 15.0039 1.23224 15.6084 0.953243C16.2129 0.658745 17.1739 0.317748 17.7784 0.193749C18.4914 0.0387497 19.3904 -0.0232498 20.4134 0.00774994V0.00774994ZM23.7768 3.21623C24.6138 3.20073 25.8383 3.30923 26.4893 3.44873C27.1868 3.58822 28.3183 3.99122 29.1708 4.39422C30.4263 4.99871 30.8293 5.29321 31.9608 6.4402C32.6893 7.1842 33.5108 8.16069 33.7743 8.62569C34.0533 9.09068 34.4718 9.92768 34.6888 10.4857C34.9212 11.0437 35.2002 11.9892 35.3242 12.5782C35.4947 13.3532 35.5257 14.1746 35.4637 15.4456C35.4172 16.4221 35.2622 17.6466 35.1227 18.1581C34.9832 18.6696 34.6888 19.5066 34.4563 20.0181C34.2238 20.5296 33.8053 21.3046 33.5108 21.7231C33.2163 22.1571 32.5498 22.9166 32.0383 23.4281C31.5268 23.9396 30.5813 24.6836 29.9458 25.0866C29.3103 25.4896 28.0858 26.0941 27.2333 26.4351C26.3808 26.7761 23.6528 27.83 21.1883 28.7755C18.7239 29.7365 16.6469 30.558 16.5694 30.6045C16.5074 30.6665 16.2904 31.1935 16.0889 31.798C15.8874 32.4025 15.2209 34.3865 14.6164 36.2155C13.8827 38.4371 13.5159 39.796 13.5159 40.292C13.5159 40.695 13.5934 41.1755 13.6864 41.377C13.7794 41.563 14.0119 41.8729 14.5234 42.4309H5.06846L5.68846 42.0124C6.02946 41.7799 6.44795 41.408 6.61845 41.2065C6.78895 40.9895 7.08345 40.5245 7.28495 40.1835C7.48645 39.827 8.09094 38.153 8.64894 36.448C9.19143 34.743 9.60993 33.317 9.56343 33.2705C9.51693 33.224 9.05193 33.3945 8.52494 33.6425C7.98244 33.875 6.71145 34.5105 5.70396 35.0375C4.43297 35.6885 3.58047 36.2465 2.96048 36.8355C2.44898 37.316 1.92199 38.0135 1.72049 38.463C1.47249 39.0055 1.36399 39.548 1.36399 40.2455C1.34849 40.8035 1.39499 41.501 1.56549 42.3379L1.10049 41.7954C0.852494 41.501 0.495996 40.8655 0.325498 40.4005C0.0929993 39.8115 0 39.1915 0 38.3855C0 37.595 0.108499 36.944 0.325498 36.3705C0.495996 35.9055 0.914493 35.0995 1.23999 34.588C1.56549 34.0765 2.24748 33.2395 2.75898 32.728C3.25498 32.201 4.09197 31.5035 4.60347 31.1625C5.11496 30.806 5.87446 30.341 6.30845 30.124C6.72695 29.907 9.34643 28.822 12.1209 27.7216C14.8954 26.6056 17.8249 25.4431 18.6309 25.1331C19.4369 24.8076 21.3588 24.0791 22.8933 23.4901C24.4278 22.9011 26.0243 22.2346 26.4583 22.0021C26.8768 21.7851 27.7913 21.2426 28.4733 20.7931C29.1553 20.3436 30.0698 19.5996 30.5038 19.1501C30.9378 18.6851 31.4648 18.0031 31.6973 17.6156C31.9143 17.2281 32.2553 16.4996 32.4258 15.9881C32.6428 15.3681 32.7823 14.5001 32.8443 13.4307C32.9063 12.1287 32.8753 11.6017 32.6428 10.7957C32.4878 10.2377 32.0538 9.30768 31.6508 8.70319C31.2478 8.11419 30.5193 7.2462 30.0078 6.7812C29.5118 6.3317 28.6128 5.72721 28.0083 5.43271C27.4038 5.13821 26.3963 4.79722 25.7608 4.65772C25.0478 4.51822 24.0248 4.44072 21.6533 4.51822L23.0483 4.73522C23.8078 4.84371 25.0013 5.12271 25.6833 5.33971C26.3653 5.54121 27.4038 6.00621 27.9928 6.3627C28.5663 6.7037 29.4033 7.3857 29.8528 7.85069C30.2868 8.31569 30.8293 9.09068 31.0618 9.55568C31.2943 10.0207 31.5578 10.9042 31.6508 11.4932C31.7748 12.2682 31.7903 12.8882 31.6663 13.6632C31.5888 14.2521 31.4338 14.9186 31.3563 15.1356C31.2323 15.4456 31.2013 15.3371 31.2013 14.5156C31.1858 13.9576 31.0463 13.0122 30.8758 12.4232C30.7208 11.8342 30.3333 10.9972 30.0388 10.5632C29.7443 10.1447 29.2173 9.58668 28.8763 9.32318C28.5198 9.05968 28.1943 8.88919 28.1478 8.93569C28.1013 8.98219 28.6593 10.8422 30.7208 17.1506L30.4263 17.5846C30.2558 17.8171 29.7908 18.3286 29.3723 18.7316C28.9693 19.1191 28.0703 19.8011 26.1483 21.0256L23.8233 14.0661C22.0098 8.62569 21.3898 6.9672 21.0178 6.5022C20.7544 6.17671 20.1964 5.72721 19.7779 5.49471C19.3594 5.26221 18.6619 5.01421 17.4374 4.81272L17.9179 4.53372C18.1814 4.36322 18.7859 4.09972 19.2509 3.94472C19.7159 3.77422 20.5839 3.54172 21.1883 3.43323C21.7928 3.32473 22.9553 3.21623 23.7768 3.21623V3.21623ZM15.0814 9.41618C15.1279 9.40068 15.1279 9.49368 15.0814 9.60218C15.0349 9.71068 14.8179 10.0517 14.6009 10.3617C14.2909 10.8112 14.0119 10.9817 13.2059 11.2452C12.6479 11.4157 12.0279 11.7412 11.8109 11.9582C11.5939 12.1752 11.3769 12.3457 11.2994 12.3457C11.2374 12.3457 11.3614 11.8807 11.9349 10.2532L13.4694 9.83468C14.3064 9.61768 15.0349 9.41618 15.0814 9.41618V9.41618ZM36.9052 14.2056C36.9827 14.3296 37.2152 14.9961 37.4167 15.6781C37.6957 16.6701 37.7732 17.3056 37.7732 18.8556C37.7732 20.4366 37.7112 20.9946 37.4322 21.8781C37.2462 22.4671 36.8277 23.4126 36.5022 23.9551C36.1767 24.4976 35.4792 25.3811 33.9758 26.9156L36.0837 33.317C37.2462 36.82 38.3002 39.92 38.4242 40.168C38.5637 40.416 38.8582 40.8655 39.0752 41.16C39.2922 41.4389 39.7572 41.8419 40.7182 42.4154H35.9132C31.8213 42.4154 31.1548 42.3844 31.4183 42.2139C31.5888 42.0899 31.8523 41.749 31.9918 41.439C32.1468 41.1135 32.2708 40.571 32.2708 40.199C32.2708 39.7805 31.5888 37.502 30.3333 33.7355C29.2638 30.5425 28.3958 27.923 28.3958 27.923C28.3803 27.923 28.9228 27.5976 29.5893 27.2101C30.2558 26.8226 31.3563 26.0476 32.0228 25.5051C32.7048 24.9626 33.6193 24.0636 34.0843 23.5056C34.5338 22.9476 35.2312 21.8626 35.6342 21.1031C36.1302 20.1266 36.4402 19.2741 36.6417 18.2356C36.8742 17.1196 36.9207 16.4221 36.8587 15.3681C36.7967 14.5001 36.8277 14.0661 36.9052 14.2056V14.2056Z" fill="#8C0914"/>
</svg>
